<svg width="553" height="115" viewBox="0 0 553 115" fill="none" xmlns="http://www.w3.org/2000/svg">
<path d="M165.531 41.4688C165.531 43.8646 165.229 46.1354 164.625 48.2812C164.021 50.4062 163.167 52.375 162.062 54.1875C160.958 56 159.635 57.625 158.094 59.0625C156.552 60.5 154.844 61.7188 152.969 62.7188C151.094 63.7188 149.083 64.4896 146.938 65.0312C144.792 65.5729 142.562 65.8438 140.25 65.8438C136.646 65.8438 133.323 65.2604 130.281 64.0938C127.26 62.9479 124.646 61.3125 122.438 59.1875C120.25 57.0625 118.542 54.5 117.312 51.5C116.083 48.5 115.469 45.1562 115.469 41.4688C115.469 39.1146 115.76 36.875 116.344 34.75C116.927 32.625 117.75 30.6667 118.812 28.875C119.875 27.0625 121.156 25.4271 122.656 23.9688C124.156 22.5104 125.823 21.2812 127.656 20.2812C129.51 19.2604 131.49 18.4792 133.594 17.9375C135.719 17.375 137.938 17.0938 140.25 17.0938C142.562 17.0938 144.792 17.3646 146.938 17.9062C149.104 18.4271 151.125 19.1875 153 20.1875C154.875 21.1875 156.583 22.4062 158.125 23.8438C159.667 25.2812 160.979 26.9062 162.062 28.7188C163.167 30.5312 164.021 32.5104 164.625 34.6562C165.229 36.7812 165.531 39.0521 165.531 41.4688ZM156.938 41.4688C156.938 39.8229 156.792 38.1562 156.5 36.4688C156.229 34.7604 155.802 33.125 155.219 31.5625C154.635 29.9792 153.896 28.5 153 27.125C152.125 25.7292 151.073 24.5208 149.844 23.5C148.635 22.4583 147.26 21.6458 145.719 21.0625C144.177 20.4583 142.458 20.1562 140.562 20.1562C138.667 20.1562 136.948 20.4583 135.406 21.0625C133.865 21.6667 132.49 22.4896 131.281 23.5312C130.073 24.5521 129.021 25.7604 128.125 27.1562C127.229 28.5312 126.49 30.0104 125.906 31.5938C125.323 33.1771 124.885 34.8125 124.594 36.5C124.323 38.1875 124.188 39.8438 124.188 41.4688C124.188 43.1979 124.312 44.9271 124.562 46.6562C124.812 48.3854 125.208 50.0417 125.75 51.625C126.292 53.1875 126.99 54.6562 127.844 56.0312C128.719 57.3854 129.76 58.5625 130.969 59.5625C132.177 60.5625 133.573 61.3542 135.156 61.9375C136.76 62.5 138.562 62.7812 140.562 62.7812C142.5 62.7812 144.25 62.4896 145.812 61.9062C147.375 61.3229 148.76 60.5208 149.969 59.5C151.198 58.4792 152.25 57.2917 153.125 55.9375C154 54.5625 154.719 53.0833 155.281 51.5C155.844 49.9167 156.26 48.2708 156.531 46.5625C156.802 44.8542 156.938 43.1562 156.938 41.4688ZM195.938 48.25C195.938 46.9167 195.792 45.5417 195.5 44.125C195.229 42.6875 194.76 41.375 194.094 40.1875C193.448 39 192.573 38.0208 191.469 37.25C190.385 36.4792 189.042 36.0938 187.438 36.0938C186.333 36.0938 185.271 36.3854 184.25 36.9688C183.229 37.5521 182.333 38.3021 181.562 39.2188C180.792 40.1146 180.177 41.125 179.719 42.25C179.26 43.3542 179.031 44.4375 179.031 45.5C178.927 47 178.844 48.5417 178.781 50.125C178.74 51.6875 178.719 53.2396 178.719 54.7812C178.719 55.6354 178.958 56.4271 179.438 57.1562C179.917 57.8854 180.521 58.5208 181.25 59.0625C182 59.6042 182.812 60.0312 183.688 60.3438C184.562 60.6562 185.406 60.8125 186.219 60.8125C187.927 60.8125 189.396 60.4479 190.625 59.7188C191.854 58.9688 192.854 58 193.625 56.8125C194.417 55.6042 195 54.25 195.375 52.75C195.75 51.25 195.938 49.75 195.938 48.25ZM178.531 39.2812C178.927 38.2812 179.458 37.3854 180.125 36.5938C180.812 35.8021 181.594 35.1458 182.469 34.625C183.365 34.0833 184.344 33.6771 185.406 33.4062C186.469 33.1146 187.594 32.9688 188.781 32.9688C190.99 32.9688 193 33.3438 194.812 34.0938C196.646 34.8438 198.208 35.8958 199.5 37.25C200.812 38.5833 201.823 40.1771 202.531 42.0312C203.26 43.8854 203.625 45.9167 203.625 48.125C203.625 50.5 203.24 52.6875 202.469 54.6875C201.698 56.6667 200.604 58.3646 199.188 59.7812C197.792 61.1979 196.104 62.2917 194.125 63.0625C192.167 63.8125 190 64.1667 187.625 64.125C186.896 64.1042 186.156 64.0417 185.406 63.9375C184.677 63.8333 183.958 63.6667 183.25 63.4375C182.542 63.2083 181.854 62.9271 181.188 62.5938C180.542 62.2396 179.938 61.8125 179.375 61.3125L180.062 79.2188L171.281 78.8438L172.5 33.5312L178.344 33.7188L178.531 39.2812ZM225.5 55.2188C223.854 55.2188 222.219 55.0104 220.594 54.5938C218.99 54.1562 217.531 53.4688 216.219 52.5312C216.24 53.3438 216.292 54.1771 216.375 55.0312C216.458 55.8854 216.594 56.7188 216.781 57.5312C216.99 58.3229 217.25 59.0729 217.562 59.7812C217.896 60.4896 218.312 61.1146 218.812 61.6562C219.333 62.1771 219.948 62.5938 220.656 62.9062C221.385 63.2188 222.25 63.375 223.25 63.375C224.188 63.375 225.062 63.2083 225.875 62.875C226.688 62.5208 227.396 62.0521 228 61.4688C228.625 60.8854 229.135 60.1979 229.531 59.4062C229.927 58.6146 230.198 57.7604 230.344 56.8438L238.031 58.5625C237.427 59.8542 236.573 60.9479 235.469 61.8438C234.385 62.7396 233.177 63.4583 231.844 64C230.51 64.5625 229.115 64.9688 227.656 65.2188C226.219 65.4688 224.833 65.5938 223.5 65.5938C221.104 65.5938 218.969 65.2396 217.094 64.5312C215.219 63.8229 213.635 62.8021 212.344 61.4688C211.073 60.1354 210.094 58.5208 209.406 56.625C208.74 54.7083 208.406 52.5625 208.406 50.1875C208.406 47.875 208.802 45.6979 209.594 43.6562C210.385 41.5938 211.49 39.8021 212.906 38.2812C214.323 36.7604 216.021 35.5625 218 34.6875C220 33.7917 222.198 33.3438 224.594 33.3438C226.344 33.3438 228.083 33.5625 229.812 34C231.542 34.4167 233.094 35.0833 234.469 36C235.844 36.8958 236.948 38.0521 237.781 39.4688C238.635 40.8854 239.062 42.5938 239.062 44.5938C239.062 46.5521 238.667 48.2083 237.875 49.5625C237.104 50.8958 236.083 51.9896 234.812 52.8438C233.542 53.6771 232.094 54.2812 230.469 54.6562C228.844 55.0312 227.188 55.2188 225.5 55.2188ZM224.156 35.6562C223.198 35.6562 222.344 35.8542 221.594 36.25C220.865 36.625 220.208 37.1458 219.625 37.8125C219.062 38.4792 218.583 39.2396 218.188 40.0938C217.792 40.9479 217.458 41.8438 217.188 42.7812C216.917 43.7188 216.708 44.6667 216.562 45.625C216.417 46.5833 216.323 47.4792 216.281 48.3125C217.073 49.6667 218.125 50.7812 219.438 51.6562C220.75 52.5104 222.271 52.9375 224 52.9375C225.104 52.9375 226.094 52.6875 226.969 52.1875C227.844 51.6667 228.583 51 229.188 50.1875C229.792 49.375 230.25 48.4688 230.562 47.4688C230.896 46.4688 231.062 45.4688 231.062 44.4688C231.062 43.4688 230.917 42.4479 230.625 41.4062C230.333 40.3438 229.896 39.3958 229.312 38.5625C228.75 37.7083 228.031 37.0104 227.156 36.4688C226.302 35.9271 225.302 35.6562 224.156 35.6562ZM253.25 34.0625L252.938 39.75C253.5 38.7292 254.156 37.7812 254.906 36.9062C255.677 36.0104 256.531 35.2604 257.469 34.6562C258.427 34.0312 259.458 33.5729 260.562 33.2812C261.688 32.9896 262.875 32.9271 264.125 33.0938C266.104 33.3854 267.781 33.9896 269.156 34.9062C270.531 35.8229 271.635 36.9896 272.469 38.4062C273.323 39.8229 273.938 41.4688 274.312 43.3438C274.688 45.2188 274.875 47.2604 274.875 49.4688C274.875 50.6979 274.771 51.9896 274.562 53.3438C274.354 54.6979 274.073 56.0521 273.719 57.4062C273.365 58.7396 272.958 60.0521 272.5 61.3438C272.062 62.6354 271.615 63.8438 271.156 64.9688L263.438 64.1875C263.479 64.1667 263.615 63.9167 263.844 63.4375C264.073 62.9583 264.344 62.3125 264.656 61.5C264.969 60.6875 265.292 59.7396 265.625 58.6562C265.979 57.5521 266.302 56.3646 266.594 55.0938C266.906 53.8229 267.156 52.4896 267.344 51.0938C267.552 49.6771 267.656 48.2604 267.656 46.8438C267.656 45.2812 267.521 43.8958 267.25 42.6875C266.979 41.4792 266.552 40.4583 265.969 39.625C265.406 38.7917 264.677 38.1562 263.781 37.7188C262.885 37.2812 261.802 37.0625 260.531 37.0625C259.427 37.0625 258.448 37.3646 257.594 37.9688C256.74 38.5521 255.99 39.3125 255.344 40.25C254.698 41.1875 254.146 42.25 253.688 43.4375C253.229 44.6042 252.844 45.7812 252.531 46.9688L251.719 63.8125L245.906 64.3125L244.688 34.75L253.25 34.0625ZM326.312 19.4688C326.312 19.4688 326.312 19.8854 326.312 20.7188C326.312 21.5521 326.292 22.6979 326.25 24.1562C326.229 25.6146 326.188 27.3333 326.125 29.3125C326.062 31.2708 325.969 33.3958 325.844 35.6875C325.74 37.9792 325.604 40.3646 325.438 42.8438C325.271 45.3229 325.052 47.8021 324.781 50.2812C324.531 52.7396 324.24 55.1458 323.906 57.5C323.573 59.8333 323.177 62 322.719 64L316.75 64.25C315.708 62.6875 314.542 60.9167 313.25 58.9375C311.958 56.9583 310.604 54.8854 309.188 52.7188C307.792 50.5312 306.365 48.3125 304.906 46.0625C303.469 43.7917 302.083 41.5938 300.75 39.4688C297.604 34.4896 294.365 29.3542 291.031 24.0625C290.927 29.7292 290.854 35.125 290.812 40.25C290.792 42.4375 290.781 44.6667 290.781 46.9375C290.781 49.2083 290.781 51.3958 290.781 53.5C290.802 55.6042 290.833 57.5625 290.875 59.375C290.938 61.1875 291.01 62.7292 291.094 64L284.438 64.8438C284.104 63.0938 283.823 61.1042 283.594 58.875C283.365 56.6458 283.167 54.3021 283 51.8438C282.854 49.3854 282.74 46.8854 282.656 44.3438C282.573 41.7812 282.51 39.2917 282.469 36.875C282.385 31.2292 282.385 25.4062 282.469 19.4062L294.938 18.4375L317.281 57.2188C317.51 54.5104 317.646 51.6042 317.688 48.5C317.729 45.375 317.688 42.1562 317.562 38.8438C317.458 35.5312 317.271 32.1771 317 28.7812C316.729 25.3854 316.396 22.0417 316 18.75L326.312 19.4688ZM365.938 49.4062C365.938 51.9271 365.438 54.1667 364.438 56.125C363.458 58.0625 362.146 59.7083 360.5 61.0625C358.875 62.3958 356.99 63.4062 354.844 64.0938C352.698 64.8021 350.469 65.1562 348.156 65.1562C345.865 65.1562 343.75 64.7604 341.812 63.9688C339.896 63.1771 338.24 62.0833 336.844 60.6875C335.448 59.2708 334.354 57.6042 333.562 55.6875C332.792 53.75 332.406 51.6354 332.406 49.3438C332.406 47.0938 332.865 44.9896 333.781 43.0312C334.719 41.0729 335.958 39.3646 337.5 37.9062C339.062 36.4271 340.854 35.2708 342.875 34.4375C344.896 33.5833 347.01 33.1562 349.219 33.1562C351.615 33.1562 353.833 33.5521 355.875 34.3438C357.917 35.1354 359.677 36.25 361.156 37.6875C362.656 39.125 363.823 40.8438 364.656 42.8438C365.51 44.8229 365.938 47.0104 365.938 49.4062ZM358.062 49.0938C358.062 48.1562 358 47.1875 357.875 46.1875C357.75 45.1667 357.542 44.1771 357.25 43.2188C356.979 42.2396 356.615 41.3229 356.156 40.4688C355.719 39.5938 355.167 38.8333 354.5 38.1875C353.833 37.5208 353.052 37 352.156 36.625C351.26 36.2292 350.24 36.0312 349.094 36.0312C347.344 36.0312 345.896 36.4583 344.75 37.3125C343.604 38.1458 342.698 39.2188 342.031 40.5312C341.385 41.8229 340.927 43.25 340.656 44.8125C340.406 46.375 340.281 47.8646 340.281 49.2812C340.281 50.2188 340.333 51.1979 340.438 52.2188C340.562 53.2188 340.76 54.2083 341.031 55.1875C341.302 56.1667 341.656 57.1042 342.094 58C342.531 58.875 343.073 59.6562 343.719 60.3438C344.385 61.0104 345.156 61.5417 346.031 61.9375C346.927 62.3333 347.948 62.5312 349.094 62.5312C350.26 62.5312 351.292 62.3333 352.188 61.9375C353.083 61.5208 353.854 60.9792 354.5 60.3125C355.167 59.625 355.729 58.8333 356.188 57.9375C356.646 57.0208 357.01 56.0729 357.281 55.0938C357.552 54.0938 357.75 53.0833 357.875 52.0625C358 51.0208 358.062 50.0312 358.062 49.0938ZM382.312 20.4062L381.938 33.2188H389.344V35.8438H381.875L381.031 64.1875L375.281 64.7188L374.688 35.8438H367V33.2188H374.625L374.438 22.4062L382.312 20.4062ZM407.562 55.2188C405.917 55.2188 404.281 55.0104 402.656 54.5938C401.052 54.1562 399.594 53.4688 398.281 52.5312C398.302 53.3438 398.354 54.1771 398.438 55.0312C398.521 55.8854 398.656 56.7188 398.844 57.5312C399.052 58.3229 399.312 59.0729 399.625 59.7812C399.958 60.4896 400.375 61.1146 400.875 61.6562C401.396 62.1771 402.01 62.5938 402.719 62.9062C403.448 63.2188 404.312 63.375 405.312 63.375C406.25 63.375 407.125 63.2083 407.938 62.875C408.75 62.5208 409.458 62.0521 410.062 61.4688C410.688 60.8854 411.198 60.1979 411.594 59.4062C411.99 58.6146 412.26 57.7604 412.406 56.8438L420.094 58.5625C419.49 59.8542 418.635 60.9479 417.531 61.8438C416.448 62.7396 415.24 63.4583 413.906 64C412.573 64.5625 411.177 64.9688 409.719 65.2188C408.281 65.4688 406.896 65.5938 405.562 65.5938C403.167 65.5938 401.031 65.2396 399.156 64.5312C397.281 63.8229 395.698 62.8021 394.406 61.4688C393.135 60.1354 392.156 58.5208 391.469 56.625C390.802 54.7083 390.469 52.5625 390.469 50.1875C390.469 47.875 390.865 45.6979 391.656 43.6562C392.448 41.5938 393.552 39.8021 394.969 38.2812C396.385 36.7604 398.083 35.5625 400.062 34.6875C402.062 33.7917 404.26 33.3438 406.656 33.3438C408.406 33.3438 410.146 33.5625 411.875 34C413.604 34.4167 415.156 35.0833 416.531 36C417.906 36.8958 419.01 38.0521 419.844 39.4688C420.698 40.8854 421.125 42.5938 421.125 44.5938C421.125 46.5521 420.729 48.2083 419.938 49.5625C419.167 50.8958 418.146 51.9896 416.875 52.8438C415.604 53.6771 414.156 54.2812 412.531 54.6562C410.906 55.0312 409.25 55.2188 407.562 55.2188ZM406.219 35.6562C405.26 35.6562 404.406 35.8542 403.656 36.25C402.927 36.625 402.271 37.1458 401.688 37.8125C401.125 38.4792 400.646 39.2396 400.25 40.0938C399.854 40.9479 399.521 41.8438 399.25 42.7812C398.979 43.7188 398.771 44.6667 398.625 45.625C398.479 46.5833 398.385 47.4792 398.344 48.3125C399.135 49.6667 400.188 50.7812 401.5 51.6562C402.812 52.5104 404.333 52.9375 406.062 52.9375C407.167 52.9375 408.156 52.6875 409.031 52.1875C409.906 51.6667 410.646 51 411.25 50.1875C411.854 49.375 412.312 48.4688 412.625 47.4688C412.958 46.4688 413.125 45.4688 413.125 44.4688C413.125 43.4688 412.979 42.4479 412.688 41.4062C412.396 40.3438 411.958 39.3958 411.375 38.5625C410.812 37.7083 410.094 37.0104 409.219 36.4688C408.365 35.9271 407.365 35.6562 406.219 35.6562Z" fill="#F3F3F3"/>
<path d="M81.5254 114.75L81.5254 90.056L481.277 90.056L481.277 114.75L81.5254 114.75Z" fill="#FFD500"/>
<path d="M12.4226 114.706C5.5618 114.706 -2.14367e-07 109.144 -4.78802e-07 102.283C-7.43237e-07 95.4222 5.5618 89.8604 12.4226 89.8604L73.5835 89.8604C74.1358 89.8604 74.5835 90.3081 74.5835 90.8604L74.5835 113.706C74.5835 114.258 74.1358 114.706 73.5835 114.706L12.4226 114.706Z" fill="#FF005E"/>
<path d="M553 102.403L481.122 90.0879L481.122 114.718C509.192 109.909 524.93 107.212 553 102.403Z" fill="#E7C8AB"/>
<mask id="path-5-inside-1_117_422" fill="white">
<path d="M553 102.352L538.362 99.1822V105.397L553 102.352Z"/>
</mask>
<path d="M538.362 99.1822L543.229 76.703L515.362 70.6695V99.1822H538.362ZM553 102.352L557.684 124.869L557.867 79.8724L553 102.352ZM538.362 105.397H515.362V133.674L543.046 127.915L538.362 105.397ZM538.362 99.1822L533.495 121.661L548.133 124.831L553 102.352L557.867 79.8724L543.229 76.703L538.362 99.1822ZM553 102.352L548.316 79.8336L533.677 82.8788L538.362 105.397L543.046 127.915L557.684 124.869L553 102.352ZM538.362 105.397H561.362V99.1822H538.362H515.362V105.397H538.362Z" fill="black" mask="url(#path-5-inside-1_117_422)"/>
</svg>
