<svg width="340" height="112" viewBox="0 0 340 112" fill="none" xmlns="http://www.w3.org/2000/svg">
<path d="M62.8125 41.4688C62.8125 43.8646 62.5104 46.1354 61.9062 48.2812C61.3021 50.4062 60.4479 52.375 59.3438 54.1875C58.2396 56 56.9167 57.625 55.375 59.0625C53.8333 60.5 52.125 61.7188 50.25 62.7188C48.375 63.7188 46.3646 64.4896 44.2188 65.0312C42.0729 65.5729 39.8438 65.8438 37.5312 65.8438C33.9271 65.8438 30.6042 65.2604 27.5625 64.0938C24.5417 62.9479 21.9271 61.3125 19.7188 59.1875C17.5312 57.0625 15.8229 54.5 14.5938 51.5C13.3646 48.5 12.75 45.1562 12.75 41.4688C12.75 39.1146 13.0417 36.875 13.625 34.75C14.2083 32.625 15.0312 30.6667 16.0938 28.875C17.1562 27.0625 18.4375 25.4271 19.9375 23.9688C21.4375 22.5104 23.1042 21.2812 24.9375 20.2812C26.7917 19.2604 28.7708 18.4792 30.875 17.9375C33 17.375 35.2188 17.0938 37.5312 17.0938C39.8438 17.0938 42.0729 17.3646 44.2188 17.9062C46.3854 18.4271 48.4062 19.1875 50.2812 20.1875C52.1562 21.1875 53.8646 22.4062 55.4062 23.8438C56.9479 25.2812 58.2604 26.9062 59.3438 28.7188C60.4479 30.5312 61.3021 32.5104 61.9062 34.6562C62.5104 36.7812 62.8125 39.0521 62.8125 41.4688ZM54.2188 41.4688C54.2188 39.8229 54.0729 38.1562 53.7812 36.4688C53.5104 34.7604 53.0833 33.125 52.5 31.5625C51.9167 29.9792 51.1771 28.5 50.2812 27.125C49.4062 25.7292 48.3542 24.5208 47.125 23.5C45.9167 22.4583 44.5417 21.6458 43 21.0625C41.4583 20.4583 39.7396 20.1562 37.8438 20.1562C35.9479 20.1562 34.2292 20.4583 32.6875 21.0625C31.1458 21.6667 29.7708 22.4896 28.5625 23.5312C27.3542 24.5521 26.3021 25.7604 25.4062 27.1562C24.5104 28.5312 23.7708 30.0104 23.1875 31.5938C22.6042 33.1771 22.1667 34.8125 21.875 36.5C21.6042 38.1875 21.4688 39.8438 21.4688 41.4688C21.4688 43.1979 21.5938 44.9271 21.8438 46.6562C22.0938 48.3854 22.4896 50.0417 23.0312 51.625C23.5729 53.1875 24.2708 54.6562 25.125 56.0312C26 57.3854 27.0417 58.5625 28.25 59.5625C29.4583 60.5625 30.8542 61.3542 32.4375 61.9375C34.0417 62.5 35.8438 62.7812 37.8438 62.7812C39.7812 62.7812 41.5312 62.4896 43.0938 61.9062C44.6562 61.3229 46.0417 60.5208 47.25 59.5C48.4792 58.4792 49.5312 57.2917 50.4062 55.9375C51.2812 54.5625 52 53.0833 52.5625 51.5C53.125 49.9167 53.5417 48.2708 53.8125 46.5625C54.0833 44.8542 54.2188 43.1562 54.2188 41.4688ZM93.2188 48.25C93.2188 46.9167 93.0729 45.5417 92.7812 44.125C92.5104 42.6875 92.0417 41.375 91.375 40.1875C90.7292 39 89.8542 38.0208 88.75 37.25C87.6667 36.4792 86.3229 36.0938 84.7188 36.0938C83.6146 36.0938 82.5521 36.3854 81.5312 36.9688C80.5104 37.5521 79.6146 38.3021 78.8438 39.2188C78.0729 40.1146 77.4583 41.125 77 42.25C76.5417 43.3542 76.3125 44.4375 76.3125 45.5C76.2083 47 76.125 48.5417 76.0625 50.125C76.0208 51.6875 76 53.2396 76 54.7812C76 55.6354 76.2396 56.4271 76.7188 57.1562C77.1979 57.8854 77.8021 58.5208 78.5312 59.0625C79.2812 59.6042 80.0938 60.0312 80.9688 60.3438C81.8438 60.6562 82.6875 60.8125 83.5 60.8125C85.2083 60.8125 86.6771 60.4479 87.9062 59.7188C89.1354 58.9688 90.1354 58 90.9062 56.8125C91.6979 55.6042 92.2812 54.25 92.6562 52.75C93.0312 51.25 93.2188 49.75 93.2188 48.25ZM75.8125 39.2812C76.2083 38.2812 76.7396 37.3854 77.4062 36.5938C78.0938 35.8021 78.875 35.1458 79.75 34.625C80.6458 34.0833 81.625 33.6771 82.6875 33.4062C83.75 33.1146 84.875 32.9688 86.0625 32.9688C88.2708 32.9688 90.2812 33.3438 92.0938 34.0938C93.9271 34.8438 95.4896 35.8958 96.7812 37.25C98.0938 38.5833 99.1042 40.1771 99.8125 42.0312C100.542 43.8854 100.906 45.9167 100.906 48.125C100.906 50.5 100.521 52.6875 99.75 54.6875C98.9792 56.6667 97.8854 58.3646 96.4688 59.7812C95.0729 61.1979 93.3854 62.2917 91.4062 63.0625C89.4479 63.8125 87.2812 64.1667 84.9062 64.125C84.1771 64.1042 83.4375 64.0417 82.6875 63.9375C81.9583 63.8333 81.2396 63.6667 80.5312 63.4375C79.8229 63.2083 79.1354 62.9271 78.4688 62.5938C77.8229 62.2396 77.2188 61.8125 76.6562 61.3125L77.3438 79.2188L68.5625 78.8438L69.7812 33.5312L75.625 33.7188L75.8125 39.2812ZM122.781 55.2188C121.135 55.2188 119.5 55.0104 117.875 54.5938C116.271 54.1562 114.812 53.4688 113.5 52.5312C113.521 53.3438 113.573 54.1771 113.656 55.0312C113.74 55.8854 113.875 56.7188 114.062 57.5312C114.271 58.3229 114.531 59.0729 114.844 59.7812C115.177 60.4896 115.594 61.1146 116.094 61.6562C116.615 62.1771 117.229 62.5938 117.938 62.9062C118.667 63.2188 119.531 63.375 120.531 63.375C121.469 63.375 122.344 63.2083 123.156 62.875C123.969 62.5208 124.677 62.0521 125.281 61.4688C125.906 60.8854 126.417 60.1979 126.812 59.4062C127.208 58.6146 127.479 57.7604 127.625 56.8438L135.312 58.5625C134.708 59.8542 133.854 60.9479 132.75 61.8438C131.667 62.7396 130.458 63.4583 129.125 64C127.792 64.5625 126.396 64.9688 124.938 65.2188C123.5 65.4688 122.115 65.5938 120.781 65.5938C118.385 65.5938 116.25 65.2396 114.375 64.5312C112.5 63.8229 110.917 62.8021 109.625 61.4688C108.354 60.1354 107.375 58.5208 106.688 56.625C106.021 54.7083 105.688 52.5625 105.688 50.1875C105.688 47.875 106.083 45.6979 106.875 43.6562C107.667 41.5938 108.771 39.8021 110.188 38.2812C111.604 36.7604 113.302 35.5625 115.281 34.6875C117.281 33.7917 119.479 33.3438 121.875 33.3438C123.625 33.3438 125.365 33.5625 127.094 34C128.823 34.4167 130.375 35.0833 131.75 36C133.125 36.8958 134.229 38.0521 135.062 39.4688C135.917 40.8854 136.344 42.5938 136.344 44.5938C136.344 46.5521 135.948 48.2083 135.156 49.5625C134.385 50.8958 133.365 51.9896 132.094 52.8438C130.823 53.6771 129.375 54.2812 127.75 54.6562C126.125 55.0312 124.469 55.2188 122.781 55.2188ZM121.438 35.6562C120.479 35.6562 119.625 35.8542 118.875 36.25C118.146 36.625 117.49 37.1458 116.906 37.8125C116.344 38.4792 115.865 39.2396 115.469 40.0938C115.073 40.9479 114.74 41.8438 114.469 42.7812C114.198 43.7188 113.99 44.6667 113.844 45.625C113.698 46.5833 113.604 47.4792 113.562 48.3125C114.354 49.6667 115.406 50.7812 116.719 51.6562C118.031 52.5104 119.552 52.9375 121.281 52.9375C122.385 52.9375 123.375 52.6875 124.25 52.1875C125.125 51.6667 125.865 51 126.469 50.1875C127.073 49.375 127.531 48.4688 127.844 47.4688C128.177 46.4688 128.344 45.4688 128.344 44.4688C128.344 43.4688 128.198 42.4479 127.906 41.4062C127.615 40.3438 127.177 39.3958 126.594 38.5625C126.031 37.7083 125.312 37.0104 124.438 36.4688C123.583 35.9271 122.583 35.6562 121.438 35.6562ZM150.531 34.0625L150.219 39.75C150.781 38.7292 151.438 37.7812 152.188 36.9062C152.958 36.0104 153.812 35.2604 154.75 34.6562C155.708 34.0312 156.74 33.5729 157.844 33.2812C158.969 32.9896 160.156 32.9271 161.406 33.0938C163.385 33.3854 165.062 33.9896 166.438 34.9062C167.812 35.8229 168.917 36.9896 169.75 38.4062C170.604 39.8229 171.219 41.4688 171.594 43.3438C171.969 45.2188 172.156 47.2604 172.156 49.4688C172.156 50.6979 172.052 51.9896 171.844 53.3438C171.635 54.6979 171.354 56.0521 171 57.4062C170.646 58.7396 170.24 60.0521 169.781 61.3438C169.344 62.6354 168.896 63.8438 168.438 64.9688L160.719 64.1875C160.76 64.1667 160.896 63.9167 161.125 63.4375C161.354 62.9583 161.625 62.3125 161.938 61.5C162.25 60.6875 162.573 59.7396 162.906 58.6562C163.26 57.5521 163.583 56.3646 163.875 55.0938C164.188 53.8229 164.438 52.4896 164.625 51.0938C164.833 49.6771 164.938 48.2604 164.938 46.8438C164.938 45.2812 164.802 43.8958 164.531 42.6875C164.26 41.4792 163.833 40.4583 163.25 39.625C162.688 38.7917 161.958 38.1562 161.062 37.7188C160.167 37.2812 159.083 37.0625 157.812 37.0625C156.708 37.0625 155.729 37.3646 154.875 37.9688C154.021 38.5521 153.271 39.3125 152.625 40.25C151.979 41.1875 151.427 42.25 150.969 43.4375C150.51 44.6042 150.125 45.7812 149.812 46.9688L149 63.8125L143.188 64.3125L141.969 34.75L150.531 34.0625ZM223.594 19.4688C223.594 19.4688 223.594 19.8854 223.594 20.7188C223.594 21.5521 223.573 22.6979 223.531 24.1562C223.51 25.6146 223.469 27.3333 223.406 29.3125C223.344 31.2708 223.25 33.3958 223.125 35.6875C223.021 37.9792 222.885 40.3646 222.719 42.8438C222.552 45.3229 222.333 47.8021 222.062 50.2812C221.812 52.7396 221.521 55.1458 221.188 57.5C220.854 59.8333 220.458 62 220 64L214.031 64.25C212.99 62.6875 211.823 60.9167 210.531 58.9375C209.24 56.9583 207.885 54.8854 206.469 52.7188C205.073 50.5312 203.646 48.3125 202.188 46.0625C200.75 43.7917 199.365 41.5938 198.031 39.4688C194.885 34.4896 191.646 29.3542 188.312 24.0625C188.208 29.7292 188.135 35.125 188.094 40.25C188.073 42.4375 188.062 44.6667 188.062 46.9375C188.062 49.2083 188.062 51.3958 188.062 53.5C188.083 55.6042 188.115 57.5625 188.156 59.375C188.219 61.1875 188.292 62.7292 188.375 64L181.719 64.8438C181.385 63.0938 181.104 61.1042 180.875 58.875C180.646 56.6458 180.448 54.3021 180.281 51.8438C180.135 49.3854 180.021 46.8854 179.938 44.3438C179.854 41.7812 179.792 39.2917 179.75 36.875C179.667 31.2292 179.667 25.4062 179.75 19.4062L192.219 18.4375L214.562 57.2188C214.792 54.5104 214.927 51.6042 214.969 48.5C215.01 45.375 214.969 42.1562 214.844 38.8438C214.74 35.5312 214.552 32.1771 214.281 28.7812C214.01 25.3854 213.677 22.0417 213.281 18.75L223.594 19.4688ZM263.219 49.4062C263.219 51.9271 262.719 54.1667 261.719 56.125C260.74 58.0625 259.427 59.7083 257.781 61.0625C256.156 62.3958 254.271 63.4062 252.125 64.0938C249.979 64.8021 247.75 65.1562 245.438 65.1562C243.146 65.1562 241.031 64.7604 239.094 63.9688C237.177 63.1771 235.521 62.0833 234.125 60.6875C232.729 59.2708 231.635 57.6042 230.844 55.6875C230.073 53.75 229.688 51.6354 229.688 49.3438C229.688 47.0938 230.146 44.9896 231.062 43.0312C232 41.0729 233.24 39.3646 234.781 37.9062C236.344 36.4271 238.135 35.2708 240.156 34.4375C242.177 33.5833 244.292 33.1562 246.5 33.1562C248.896 33.1562 251.115 33.5521 253.156 34.3438C255.198 35.1354 256.958 36.25 258.438 37.6875C259.938 39.125 261.104 40.8438 261.938 42.8438C262.792 44.8229 263.219 47.0104 263.219 49.4062ZM255.344 49.0938C255.344 48.1562 255.281 47.1875 255.156 46.1875C255.031 45.1667 254.823 44.1771 254.531 43.2188C254.26 42.2396 253.896 41.3229 253.438 40.4688C253 39.5938 252.448 38.8333 251.781 38.1875C251.115 37.5208 250.333 37 249.438 36.625C248.542 36.2292 247.521 36.0312 246.375 36.0312C244.625 36.0312 243.177 36.4583 242.031 37.3125C240.885 38.1458 239.979 39.2188 239.312 40.5312C238.667 41.8229 238.208 43.25 237.938 44.8125C237.688 46.375 237.562 47.8646 237.562 49.2812C237.562 50.2188 237.615 51.1979 237.719 52.2188C237.844 53.2188 238.042 54.2083 238.312 55.1875C238.583 56.1667 238.938 57.1042 239.375 58C239.812 58.875 240.354 59.6562 241 60.3438C241.667 61.0104 242.438 61.5417 243.312 61.9375C244.208 62.3333 245.229 62.5312 246.375 62.5312C247.542 62.5312 248.573 62.3333 249.469 61.9375C250.365 61.5208 251.135 60.9792 251.781 60.3125C252.448 59.625 253.01 58.8333 253.469 57.9375C253.927 57.0208 254.292 56.0729 254.562 55.0938C254.833 54.0938 255.031 53.0833 255.156 52.0625C255.281 51.0208 255.344 50.0312 255.344 49.0938ZM279.594 20.4062L279.219 33.2188H286.625V35.8438H279.156L278.312 64.1875L272.562 64.7188L271.969 35.8438H264.281V33.2188H271.906L271.719 22.4062L279.594 20.4062ZM304.844 55.2188C303.198 55.2188 301.562 55.0104 299.938 54.5938C298.333 54.1562 296.875 53.4688 295.562 52.5312C295.583 53.3438 295.635 54.1771 295.719 55.0312C295.802 55.8854 295.938 56.7188 296.125 57.5312C296.333 58.3229 296.594 59.0729 296.906 59.7812C297.24 60.4896 297.656 61.1146 298.156 61.6562C298.677 62.1771 299.292 62.5938 300 62.9062C300.729 63.2188 301.594 63.375 302.594 63.375C303.531 63.375 304.406 63.2083 305.219 62.875C306.031 62.5208 306.74 62.0521 307.344 61.4688C307.969 60.8854 308.479 60.1979 308.875 59.4062C309.271 58.6146 309.542 57.7604 309.688 56.8438L317.375 58.5625C316.771 59.8542 315.917 60.9479 314.812 61.8438C313.729 62.7396 312.521 63.4583 311.188 64C309.854 64.5625 308.458 64.9688 307 65.2188C305.562 65.4688 304.177 65.5938 302.844 65.5938C300.448 65.5938 298.312 65.2396 296.438 64.5312C294.562 63.8229 292.979 62.8021 291.688 61.4688C290.417 60.1354 289.438 58.5208 288.75 56.625C288.083 54.7083 287.75 52.5625 287.75 50.1875C287.75 47.875 288.146 45.6979 288.938 43.6562C289.729 41.5938 290.833 39.8021 292.25 38.2812C293.667 36.7604 295.365 35.5625 297.344 34.6875C299.344 33.7917 301.542 33.3438 303.938 33.3438C305.688 33.3438 307.427 33.5625 309.156 34C310.885 34.4167 312.438 35.0833 313.812 36C315.188 36.8958 316.292 38.0521 317.125 39.4688C317.979 40.8854 318.406 42.5938 318.406 44.5938C318.406 46.5521 318.01 48.2083 317.219 49.5625C316.448 50.8958 315.427 51.9896 314.156 52.8438C312.885 53.6771 311.438 54.2812 309.812 54.6562C308.188 55.0312 306.531 55.2188 304.844 55.2188ZM303.5 35.6562C302.542 35.6562 301.688 35.8542 300.938 36.25C300.208 36.625 299.552 37.1458 298.969 37.8125C298.406 38.4792 297.927 39.2396 297.531 40.0938C297.135 40.9479 296.802 41.8438 296.531 42.7812C296.26 43.7188 296.052 44.6667 295.906 45.625C295.76 46.5833 295.667 47.4792 295.625 48.3125C296.417 49.6667 297.469 50.7812 298.781 51.6562C300.094 52.5104 301.615 52.9375 303.344 52.9375C304.448 52.9375 305.438 52.6875 306.312 52.1875C307.188 51.6667 307.927 51 308.531 50.1875C309.135 49.375 309.594 48.4688 309.906 47.4688C310.24 46.4688 310.406 45.4688 310.406 44.4688C310.406 43.4688 310.26 42.4479 309.969 41.4062C309.677 40.3438 309.24 39.3958 308.656 38.5625C308.094 37.7083 307.375 37.0104 306.5 36.4688C305.646 35.9271 304.646 35.6562 303.5 35.6562Z" fill="#F3F3F3"/>
<path d="M50.1239 111.03L50.1239 87.1888L295.902 87.1888L295.902 111.03L50.1239 111.03Z" fill="#FFD500"/>
<path d="M11.9938 110.988C5.36979 110.988 -2.14367e-07 105.618 -4.78802e-07 98.9938C-7.43237e-07 92.3698 5.3698 87 11.9938 87L44.856 87C45.4083 87 45.856 87.4477 45.856 88L45.856 109.988C45.856 110.54 45.4083 110.988 44.856 110.988L11.9938 110.988Z" fill="#FF005E"/>
<path d="M340 99.1094L295.807 87.2196L295.807 110.999C313.065 106.356 322.742 103.753 340 99.1094Z" fill="#E7C8AB"/>
<mask id="path-5-inside-1_67_107" fill="white">
<path d="M340 99.0599L331 96V102L340 99.0599Z"/>
</mask>
<path d="M331 96L338.404 74.2242L308 63.8871V96H331ZM340 99.0599L347.142 120.923L412.734 99.4959L347.404 77.2841L340 99.0599ZM331 102H308V133.71L338.142 123.863L331 102ZM331 96L323.596 117.776L332.596 120.836L340 99.0599L347.404 77.2841L338.404 74.2242L331 96ZM340 99.0599L332.858 77.1969L323.858 80.137L331 102L338.142 123.863L347.142 120.923L340 99.0599ZM331 102H354V96H331H308V102H331Z" fill="black" mask="url(#path-5-inside-1_67_107)"/>
</svg>
